# AST/ASF file generated using VICON BodyLanguage
# -----------------------------------------------
:version 1.10
:name VICON
:units
  mass 1.0
  length 0.45
  angle deg
:documentation
   .ast/.asf automatically generated from VICON data using
   VICON BodyBuilder and BodyLanguage model FoxedUp or BRILLIANT.MOD
:root
   order TX TY TZ RX RY RZ
   axis XYZ
   position 0 0 0  
   orientation 0 0 0 
:bonedata
  begin
     id 1 
     name lhipjoint
     direction 0.650112 -0.723553 0.232005 
     length 2.45805 
     axis 0 0 0  XYZ
  end
  begin
     id 2 
     name lfemur
     direction 0.34202 -0.939693 0  
     length 7.00073  
     axis 0 0 20  XYZ
    dof rx ry rz
    limits (-160.0 20.0)
           (-70.0 70.0)
           (-60.0 70.0)
  end
  begin
     id 3 
     name ltibia
     direction 0.34202 -0.939693 0   
     length 7.8748   
     axis 0 0 20   XYZ
    dof rx
    limits (-10.0 170.0)
  end
  begin
     id 4 
     name lfoot
     direction 0.0542825 -0.14914 0.987325   
     length 1.75978   
     axis -90 7.62852e-016 20   XYZ
    dof rx rz
    limits (-45.0 90.0)
           (-70.0 20.0)
  end
  begin
     id 5 
     name ltoes
     direction 1.53509e-011 -4.21906e-011 1   
     length 0.893912   
     axis -90 7.62852e-016 20   XYZ
    dof rx
    limits (-90.0 20.0)
  end
  begin
     id 6 
     name rhipjoint
     direction -0.637897 -0.733345 0.235145   
     length 2.42522  
     axis 0 0 0  XYZ 
  end
  begin
     id 7 
     name rfemur
     direction -0.34202 -0.939693 0   
     length 7.02549   
     axis 0 0 -20   XYZ
    dof rx ry rz
    limits (-160.0 20.0)
           (-70.0 70.0)
           (-70.0 60.0)
  end
  begin
     id 8 
     name rtibia
     direction -0.34202 -0.939693 0   
     length 7.71512   
     axis 0 0 -20   XYZ
    dof rx
    limits (-10.0 170.0)
 end
 begin
     id 9 
     name rfoot
     direction -0.0822618 -0.226012 0.970645   
     length 1.90014  
     axis -90 -7.62852e-016 -20   XYZ
    dof rx rz
    limits (-45.0 90.0)
           (-20.0 70.0)
  end
  begin
     id 10 
     name rtoes
     direction -1.53542e-011 -4.21872e-011 1   
     length 0.957341   
     axis -90 -7.62852e-016 -20   XYZ
    dof rx
    limits (-90.0 20.0)
  end
  begin
     id 11 
     name lowerback
     direction -0.0022947 0.999774 -0.0211557   
     length 1.89909   
     axis 0 0 0   XYZ
    dof rx ry rz
    limits (-20.0 45.0)
           (-30.0 30.0)
           (-30.0 30.0)
  end
  begin
     id 12 
     name upperback
     direction 0.0107737 0.998635 0.0511027   
     length 1.8853   
     axis 0 0 0   XYZ
    dof rx ry rz
    limits (-20.0 45.0)
           (-30.0 30.0)
           (-30.0 30.0)
  end
  begin
     id 13 
     name thorax
     direction 0.011824 0.998136 0.0598754   
     length 1.88911   
     axis 0 0 0   XYZ
    dof rx ry rz
    limits (-20.0 45.0)
           (-30.0 30.0)
           (-30.0 30.0)
  end
  begin
     id 14 
     name lowerneck
     direction -0.0685355 0.990319 0.120714   
     length 1.91222   
     axis 0 0 0   XYZ
    dof rx ry rz
    limits (-20.0 45.0)
           (-30.0 30.0)
           (-30.0 30.0)
  end
  begin
     id 15 
     name upperneck
     direction 0.0886204 0.955665 -0.280805   
     length 1.92526   
     axis 0 0 0   XYZ
    dof rx ry rz
    limits (-20.0 45.0)
           (-30.0 30.0)
           (-30.0 30.0)
  end
  begin
     id 16
     name head
     direction 0.0233423 0.993502 -0.111393  
     length 1.96056  
     axis 0 0 0   XYZ
    dof rx ry rz
    limits (-20.0 45.0)
           (-30.0 30.0)
           (-30.0 30.0)
  end
  begin
     id 17 
     name lclavicle
     direction 0.941873 0.32922 0.0670041  
     length 3.31705  
     axis 0 0 0   XYZ
    dof ry rz
    limits (-20.0 10.0)
           (0.0 20.0)
  end
  begin
     id 18 
     name lhumerus
     direction 1 -4.4898e-011 3.38707e-028   
     length 5.29277   
     axis 180 -30 -90   XYZ
    dof rx ry rz
    limits (-60.0 90.0)
           (-90.0 90.0)
           (-90.0 90.0)
  end
  begin
     id 19
     name lradius
     direction 1 -4.48952e-011 1.63213e-028   
     length 2.85226   
     axis 180 -30 -90   XYZ
    dof rx
    limits (-10.0 170.0)
  end
  begin
     id 20
     name lwrist
     direction 1 -4.49001e-011 1.27856e-027   
     length 1.42613   
     axis -1.61767e-015 90 90   XYZ
    dof ry
    limits (-180.0 0.0)
 end
  begin
     id 21 
     name lhand
     direction 1 -4.48976e-011 2.55931e-027   
     length 0.602097   
     axis -1.63363e-015 90 90   XYZ
    dof rx rz
    limits (-90.0 90.0)
           (-45.0 45.0)
  end
  begin
     id 22 
     name lfingers
     direction 1 -4.48986e-011 5.11684e-027   
     length 0.485426   
     axis -3.26723e-015 90 90   XYZ
    dof rx
    limits (0.0 90.0)
  end
  begin
     id 23
     name lthumb
     direction 0.707107 -6.34915e-011 0.707107   
     length 0.696978   
     axis -90 45 -2.25915e-014   XYZ
    dof rx rz
    limits (-45.0 45.0)
           (-45.0 45.0)
  end
  begin
     id 24 
     name rclavicle
     direction -0.939974 0.327078 0.0973096   
     length 3.10337  
     axis 0 0 0   XYZ 
    dof ry rz
    limits (-10.0 20.0)
           (-20.0 0.0)
  end
  begin
     id 25 
     name rhumerus
     direction -1 -4.48975e-011 1.83745e-027  
     length 5.13304   
     axis 180 30 90   XYZ
    dof rx ry rz
    limits (-90.0 60.0)
           (-90.0 90.0)
           (-90.0 90.0)
  end
  begin
     id 26 
     name rradius
     direction -1 -4.48977e-011 7.1775e-029   
     length 2.74305   
     axis 180 30 90   XYZ
    dof rx
    limits (-10.0 170.0)
  end
  begin
     id 27 
     name rwrist
     direction -1 -4.48977e-011 1.27963e-027   
     length 1.37152   
     axis -1.61767e-015 -90 -90   XYZ
    dof ry
    limits (-180.0 0.0)
  end
  begin
     id 28
     name rhand
     direction -1 -4.4888e-011 2.56782e-027   
     length 0.767976   
     axis -1.63363e-015 -90 -90   XYZ
    dof rx rz
    limits (-90.0 90.0)
           (-45.0 45.0)
  end
  begin
     id 29
     name rfingers
     direction -1 -4.48947e-011 5.12384e-027   
     length 0.619162   
     axis -3.26723e-015 -90 -90   XYZ
    dof rx
    limits (0.0 90.0)
  end
  begin
     id 30
     name rthumb
     direction -0.707107 -6.34857e-011 0.707107   
     length 0.888997   
     axis -90 -45 2.25915e-014   XYZ
    dof rx rz
    limits (-45.0 45.0)
           (-45.0 45.0)
  end
:hierarchy
  begin
    root lhipjoint rhipjoint lowerback
    lhipjoint lfemur
    lfemur ltibia
    ltibia lfoot
    lfoot ltoes
    rhipjoint rfemur
    rfemur rtibia
    rtibia rfoot
    rfoot rtoes
    lowerback upperback
    upperback thorax
    thorax lowerneck lclavicle rclavicle
    lowerneck upperneck
    upperneck head
    lclavicle lhumerus
    lhumerus lradius
    lradius lwrist
    lwrist lhand lthumb
    lhand lfingers
    rclavicle rhumerus
    rhumerus rradius
    rradius rwrist
    rwrist rhand rthumb
    rhand rfingers
  end

#!OML:ASF F:\VICON\USERDATA\INSTALL\rory3\rory3.ASF
:FULLY-SPECIFIED
:DEGREES
748
root -0.0381557 16.8926 -0.355293 -3.82247 15.4862 0.450011
lowerback 4.18935 0.158315 -1.03424
upperback 4.08873 0.179515 1.79654
thorax 1.8454 0.0456315 2.42247
lowerneck -12.6206 -10.9786 -18.4785
upperneck 16.4206 -15.9938 21.7811
head 10.8114 -6.7969 8.5692
rclavicle -5.77966e-014 5.1684e-015
rhumerus -22.6839 25.8158 -80.4342
rradius 143.615
rwrist -42.6075
rhand 33.895 18.1638
rfingers 7.12502
rthumb 57.1705 1.72071
lclavicle -5.77966e-014 5.1684e-015
lhumerus -8.16077 -38.8424 77.2328
lradius 140.687
lwrist 53.0671
lhand 37.0804 25.2226
lfingers 7.12502
lthumb 59.9341 39.0719
rfemur -1.61184 -1.45188 19.0694
rtibia 30.1288
rfoot -23.1917 -16.305
rtoes -19.1916
lfemur -8.64933 -12.6686 -19.2732
ltibia 32.9552
lfoot -19.4461 -3.74632
ltoes -15.6447
749
root -0.0364521 16.8918 -0.363251 -3.88811 15.0654 0.248926
lowerback 4.19235 0.160823 -0.778565
upperback 4.03699 0.189066 1.82148
thorax 1.78997 0.0568719 2.30384
lowerneck -11.583 -10.7366 -18.711
upperneck 16.4358 -15.767 21.8204
head 10.5827 -6.77225 8.70896
rclavicle -9.59136e-015 6.75868e-015
rhumerus -22.8842 25.8564 -80.5229
rradius 143.638
rwrist -42.5923
rhand 34.1241 18.1846
rfingers 7.12502
rthumb 57.3716 1.91238
lclavicle -9.59136e-015 6.75868e-015
lhumerus -8.10168 -39.1299 77.2763
lradius 140.688
lwrist 53.1013
lhand 36.8541 25.216
lfingers 7.12502
lthumb 59.7402 39.2662
rfemur -1.70766 -1.27123 19.2805
rtibia 30.128
rfoot -23.0476 -16.1624
rtoes -19.1893
lfemur -8.68885 -12.4382 -19.0485
ltibia 33.1245
lfoot -19.6413 -3.54664
ltoes -15.9825
750
root -0.0359532 16.889 -0.368805 -3.94894 14.6438 0.132587
lowerback 4.08679 0.123176 -0.7206
upperback 4.06482 0.139183 1.84691
thorax 1.87997 0.0318482 2.29909
lowerneck -10.6141 -10.4482 -18.7991
upperneck 16.4258 -15.4681 21.7756
head 10.3181 -6.70669 8.79867
rclavicle 2.96686e-014 7.95139e-016
rhumerus -22.8081 25.9899 -80.6113
rradius 143.535
rwrist -42.5579
rhand 33.8939 18.0865
rfingers 7.12502
rthumb 57.1695 1.64264
lclavicle 2.96686e-014 7.95139e-016
lhumerus -8.07387 -39.198 77.2614
lradius 140.591
lwrist 53.1576
lhand 36.9512 25.0553
lfingers 7.12502
lthumb 59.8234 39.0197
rfemur -1.80507 -1.06016 19.412
rtibia 30.1971
rfoot -22.9616 -16.0415
rtoes -19.5184
lfemur -8.6764 -12.193 -18.9183
ltibia 33.2426
lfoot -19.7991 -3.35079
ltoes -16.0134
751
root -0.0297181 16.8838 -0.37034 -4.091 14.2059 0.128772
lowerback 3.96002 0.0815781 -0.769631
upperback 4.17496 0.0807584 1.86705
thorax 2.0674 -0.00127211 2.34947
lowerneck -9.6389 -10.1439 -18.8578
upperneck 16.3756 -15.1311 21.664
head 10.0197 -6.62607 8.85976
rclavicle 1.0635e-014 -2.78299e-015
rhumerus -22.529 26.0748 -80.4958
rradius 143.424
rwrist -42.6234
rhand 33.0694 18.1328
rfingers 7.12502
rthumb 56.4433 1.09221
lclavicle 1.0635e-014 -2.78299e-015
lhumerus -8.03344 -39.2173 77.2974
lradius 140.572
lwrist 53.3087
lhand 36.7858 25.2594
lfingers 7.12502
lthumb 59.6816 39.3696
rfemur -1.76486 -0.957221 19.3549
rtibia 30.3084
rfoot -23.0185 -15.7605
rtoes -20.0905
lfemur -8.48677 -11.9878 -18.9789
ltibia 33.3447
lfoot -19.9559 -3.07098
ltoes -16.1753
752
root -0.0171319 16.8768 -0.368542 -4.25008 13.7803 0.332095
lowerback 3.81218 0.0550107 -0.945444
upperback 4.30456 0.0403957 1.84305
thorax 2.28631 -0.0286979 2.42512
lowerneck -8.5875 -9.85784 -19.0821
upperneck 16.3563 -14.8214 21.5848
head 9.74273 -6.56888 8.96072
rclavicle -2.6339e-014 -7.95139e-016
rhumerus -22.3329 26.1597 -80.2956
rradius 143.393
rwrist -42.7194
rhand 32.6979 18.1392
rfingers 7.12502
rthumb 56.1147 0.838827
lclavicle -2.6339e-014 -7.95139e-016
lhumerus -7.89686 -39.3611 77.4018
lradius 140.691
lwrist 53.5527
lhand 35.964 25.7096
lfingers 7.12502
lthumb 58.9738 40.5239
rfemur -1.64381 -0.983398 19.0055
rtibia 30.4496
rfoot -23.1408 -15.3665
rtoes -20.766
lfemur -8.16727 -11.8673 -19.3274
ltibia 33.4204
lfoot -19.9866 -2.7407
ltoes -16.2501
753
root -0.00901769 16.8687 -0.368351 -4.46019 13.4145 0.320657
lowerback 3.66002 0.0562285 -0.868249
upperback 4.42892 0.0425712 1.82033
thorax 2.49994 -0.0279038 2.35895
lowerneck -7.38223 -9.60362 -19.3177
upperneck 16.2692 -14.6012 21.6195
head 9.44712 -6.55528 9.09469
rclavicle -3.08613e-014 3.97569e-015
rhumerus -22.3456 26.1501 -80.2902
rradius 143.411
rwrist -42.71
rhand 32.5757 17.9027
rfingers 7.12502
rthumb 56.0065 0.518001
lclavicle -3.08613e-014 3.97569e-015
lhumerus -7.44731 -39.6642 77.3297
lradius 140.77
lwrist 53.7044
lhand 35.3891 25.8652
lfingers 7.12502
lthumb 58.4756 41.152
rfemur -1.54393 -0.975265 18.9348
rtibia 30.6137
rfoot -23.2454 -15.0928
rtoes -20.558
lfemur -7.88547 -11.6914 -19.3951
ltibia 33.4944
lfoot -20.0537 -2.71944
ltoes -15.3124
